# xmcd
#
# Track frame offsets:
# 150
# 17471
# 34778
# 50934
# 69308
# 88016
# 108603
# 124951
# 138121
# 154977
# 174119
# 192533
#
# Disc length: 2781 seconds
#
#
# Revision: 1
# Processed by: cddbd v1.5.2PL0 Copyright (c) Steve Scherf et al.
# Submitted via: FreeRIP 2.944 
#
DISCID=a30adb0c
DTITLE=Suzy Bogguss - Sweet Danger
DYEAR=2007
DGENRE=Country
TTITLE0=The Bus Ride
TTITLE1=Everything
TTITLE2=No Good Way to Go
TTITLE3=If You Leave Me Now
TTITLE4=In Heaven
TTITLE5=Baby July
TTITLE6=Even If That Were True
TTITLE7=Chain Lover
TTITLE8=Sweet Danger
TTITLE9=Right Back Into the Feeling
TTITLE10=It's Not Gonna Happen Today
TTITLE11=One Clear Moment
EXTD=
EXTT0=
EXTT1=
EXTT2=
EXTT3=
EXTT4=
EXTT5=
EXTT6=
EXTT7=
EXTT8=
EXTT9=
EXTT10=
EXTT11=
PLAYORDER=
